<svg width="100" height="40" viewBox="0 0 100 40" fill="none" xmlns="http://www.w3.org/2000/svg">
<g clip-path="url(#clip0_6_4010)">
<path d="M68.6108 17.4236C68.6108 17.4236 68.8546 17.4236 69.3865 17.4236C69.7672 17.4236 69.8446 17.5667 69.8536 17.9003L69.8486 21.2818C69.8486 22.0631 69.5639 22.913 67.4158 22.913C65.3992 22.913 65.4856 21.525 65.4856 21.2867V17.8962C65.4946 17.5467 65.5302 17.4236 65.9153 17.4236C66.4505 17.4236 66.7425 17.4236 66.7425 17.4236V16.587H61.9788V17.4236C61.9788 17.4236 62.2627 17.4236 62.7939 17.4236C63.1893 17.4236 63.2603 17.5791 63.2644 17.944V21.1844C63.2644 23.3373 65.495 23.716 67.4158 23.716C69.3684 23.716 71.2588 23.3222 71.2588 21.2508L71.2429 17.751C71.2657 17.5127 71.341 17.4236 71.6665 17.4236C72.2019 17.4236 72.517 17.4236 72.517 17.4236V16.587H68.6107L68.6108 17.4236ZM81.3804 19.5434C81.1635 19.4384 80.8449 19.3466 80.5686 19.2794C80.0255 19.1386 78.7825 18.9755 78.2008 18.9189C77.5934 18.8525 76.5287 18.7364 76.1079 18.6039C75.9718 18.5672 75.7113 18.4012 75.7113 18.0995C75.7113 17.8811 75.8378 17.6987 76.0685 17.5467C76.4437 17.316 77.2058 17.1708 77.9962 17.1708C78.9338 17.1632 79.7263 17.3726 80.2314 17.5985C80.4034 17.6841 80.6031 17.7934 80.7641 17.9162C80.9465 18.0668 81.1939 18.375 81.2837 18.7985H82.1342V16.4979H81.1939V16.7632C81.1939 16.8523 81.1062 16.9613 80.9292 16.8674C80.5071 16.6423 79.3125 16.1702 77.8442 16.1649C77.0124 16.1649 76.0685 16.3238 75.2698 16.6817C74.5291 17.0085 73.917 17.5438 73.917 18.4331C73.917 19.2276 74.4262 19.6789 74.4082 19.6651C74.6259 19.8619 74.9748 20.1847 75.882 20.3725C76.2869 20.4713 77.163 20.5874 78.0301 20.6813C78.8896 20.7706 79.725 20.8907 80.0704 20.973C80.344 21.0413 80.7987 21.1671 80.7987 21.6756C80.7987 22.1897 80.3171 22.3479 80.2314 22.3776C80.143 22.4156 79.5695 22.6796 78.5234 22.6796C77.7503 22.6796 76.8313 22.4475 76.4921 22.3306C76.1045 22.1897 75.6975 22.0081 75.3203 21.536C75.2243 21.4275 75.0798 21.1042 75.0798 20.7933H74.1284V23.4361H75.1772C75.1772 23.4361 75.1772 23.1543 75.1772 23.0769C75.1772 23.045 75.2352 22.8758 75.4004 22.9595C75.6229 23.0561 76.2641 23.3103 76.9426 23.4499C77.4912 23.5627 77.8442 23.6434 78.5255 23.6434C79.6496 23.6434 80.2459 23.4658 80.6625 23.347C81.0598 23.2302 81.5407 23.0291 81.929 22.7195C82.1453 22.5573 82.6027 22.1212 82.6027 21.3296C82.6027 20.5722 82.2047 20.1329 82.0569 19.9939C81.8655 19.7985 81.6292 19.6608 81.3804 19.5434ZM87.9857 22.444C87.8931 22.4191 87.8303 22.3535 87.8075 22.2893L87.7916 22.1012L87.7764 17.7842L87.7951 17.595C87.8186 17.5321 87.8835 17.4666 87.974 17.4431L88.2083 17.4277C88.3727 17.4277 89.0775 17.4277 89.0775 17.4277V16.5869H84.4137V17.4277H85.24L85.4701 17.4431C85.5627 17.4666 85.6221 17.5321 85.6511 17.595L85.6677 17.7842L85.6546 22.1012L85.6446 22.2893C85.61 22.3535 85.5548 22.4191 85.4581 22.444L85.23 22.4599H84.4051V23.2993H89.0841V22.4599C89.0841 22.4599 88.3807 22.4599 88.2135 22.4599L87.9857 22.444ZM98.7366 20.9107C98.5826 21.4297 98.0533 22.0281 97.5524 22.2658C97.0902 22.4869 96.4897 22.7238 95.5321 22.7106L95.3255 22.7044C95.1625 22.692 95.0049 22.6677 94.8515 22.638C94.2946 22.522 93.7806 22.2685 93.4047 21.8961C92.9045 21.3881 92.6316 20.6767 92.6316 19.9242C92.6316 19.158 92.9024 18.456 93.4047 17.9475C93.9229 17.4388 94.6746 17.1708 95.4713 17.1548H95.5093H95.6185C96.4939 17.1707 97.0059 17.2868 97.6615 17.6185C98.0761 17.8307 98.6579 18.4331 98.7788 19.0509H99.6915V16.564H98.7484V16.8328L98.6745 16.9524C98.633 16.9807 98.5695 16.9807 98.4852 16.9386C98.0803 16.7243 96.9948 16.1524 95.5321 16.1494L95.3677 16.1525H95.3505C93.923 16.1947 92.4361 16.699 91.5752 17.4734C91.3714 17.6656 91.1932 17.8707 91.0453 18.0966C90.6846 18.6412 90.4988 19.2817 90.4988 19.9243C90.4988 19.9864 90.4988 20.0555 90.5028 20.1184C90.5526 20.9564 90.9056 21.7683 91.5758 22.3736C92.3856 23.1045 93.5304 23.5474 94.7928 23.6718C95.9991 23.7825 97.2428 23.593 98.0885 23.1169C98.9287 22.6341 99.5098 21.8436 99.7094 20.9648L99.7185 20.9108L98.7366 20.9107ZM56.4421 16.587L54.4511 20.9757L52.4619 16.587H48.1347V17.4277H48.8697C49.3978 17.4277 49.4343 17.7186 49.4343 17.9785V21.8996C49.4343 22.1428 49.4513 22.4599 49.1095 22.4599C48.5782 22.4599 48.2017 22.4599 48.2017 22.4599V23.2993H51.8476V22.4599C51.8476 22.4599 51.6617 22.4599 51.1338 22.4599C50.7603 22.4599 50.7373 22.2926 50.7311 21.9188L50.7332 17.6474H50.7645L53.3177 23.2993H54.75L57.283 17.6474H57.3173L57.3446 21.9188C57.3386 22.2926 57.3173 22.4599 56.943 22.4599C56.4154 22.4599 56.2259 22.4599 56.2259 22.4599V23.2993H60.6479V22.4599C60.6479 22.4599 60.2713 22.4599 59.7345 22.4599C59.3972 22.4599 59.4139 22.1428 59.4139 21.8996L59.3891 17.9785C59.3891 17.7186 59.4274 17.4277 59.957 17.4277H60.69V16.587H57.6318H56.4421ZM28.0969 17.4236C28.0969 17.4236 28.4334 17.4236 28.9656 17.4236C29.3581 17.4236 29.4291 17.5791 29.4323 17.944L29.4809 20.7498L24.8719 16.587H21.5741V17.4277H22.3068C22.8345 17.4277 22.8723 17.7186 22.8723 17.9785V21.8996C22.8723 22.1428 22.8882 22.4599 22.5489 22.4599C22.0159 22.4599 21.6413 22.4599 21.6413 22.4599V23.2993H25.5156V22.4599C25.5156 22.4599 25.0986 22.4599 24.5691 22.4599C24.1937 22.4599 24.1745 22.2926 24.1677 21.9188V18.5561L29.4809 23.2993H30.8323L30.7599 17.944C30.7705 17.5556 30.7896 17.4236 31.1918 17.4236C31.7278 17.4236 32.0398 17.4236 32.0398 17.4236V16.587H28.0969L28.0969 17.4236ZM7.68928 19.5005C7.46798 19.3998 7.13329 19.2754 6.85503 19.213C6.31038 19.077 5.09127 18.9105 4.5091 18.8525C3.89779 18.7869 2.83143 18.6965 2.41148 18.5672C2.28058 18.5305 2.01554 18.4012 2.01554 18.0995C2.01554 17.8811 2.1405 17.6987 2.37369 17.5467C2.74776 17.316 3.51508 17.1708 4.30344 17.1708C5.24294 17.1632 6.03509 17.3726 6.53629 17.5985C6.71091 17.6841 6.90982 17.7934 7.07149 17.9162C7.25178 18.0668 7.50065 18.375 7.59614 18.7985H8.44281V16.4979H7.49928V16.7632C7.49928 16.8523 7.40939 16.9613 7.23907 16.8674C6.81482 16.6423 5.62188 16.1702 4.15257 16.1649C3.32237 16.1649 2.37369 16.3238 1.57776 16.6817C0.836904 17.0085 0.224243 17.5438 0.224243 18.4331C0.224243 19.2276 0.733803 19.6954 0.718692 19.6789C0.935958 19.884 1.28385 20.2219 2.19205 20.4181C2.59689 20.5072 3.46164 20.6435 4.32908 20.7393C5.186 20.8243 6.03158 20.9137 6.37813 20.9957C6.65126 21.071 7.10577 21.1671 7.10577 21.6756C7.10577 22.1897 6.62346 22.3479 6.53629 22.3776C6.45074 22.4156 5.87612 22.6796 4.82946 22.6796C4.06053 22.6796 3.13803 22.4475 2.79931 22.3306C2.4139 22.1897 2.00528 22.0081 1.62527 21.536C1.53054 21.4275 1.38507 21.1085 1.38507 20.7933H0.43503V23.4361H1.48573C1.48573 23.4361 1.48573 23.1543 1.48573 23.0769C1.48573 23.045 1.54133 22.8758 1.70975 22.9595C1.92917 23.0561 2.57206 23.3103 3.24734 23.4499C3.79766 23.5627 4.15257 23.6434 4.83541 23.6434C5.95574 23.6434 6.5568 23.4658 6.9692 23.347C7.36675 23.2302 7.84854 23.0291 8.23691 22.7195C8.45069 22.5573 8.91243 22.1212 8.91243 21.3296C8.91243 20.5722 8.51273 20.1024 8.36536 19.962C8.17024 19.768 7.93732 19.616 7.68928 19.5005ZM39.331 17.4236C39.331 17.4236 39.7963 17.4236 39.9002 17.4236C40.0684 17.4236 40.1137 17.595 40.0408 17.6841L38.4309 19.5677L38.3858 19.5585L36.818 17.6841C36.7033 17.5438 36.7959 17.4237 36.9208 17.4237C37.0328 17.4237 37.4765 17.4237 37.4765 17.4237V16.587H32.8508V17.4236C32.8508 17.4236 33.3865 17.4236 33.6745 17.4236C34.0332 17.4236 34.2648 17.6517 34.4 17.7988C34.5088 17.9135 36.8652 20.5874 36.9208 20.6613C36.9777 20.7353 36.9777 20.7498 36.9777 20.7822V22.1012L36.9618 22.2893C36.9264 22.3536 36.8706 22.4191 36.781 22.444L36.5475 22.4599H35.7249V23.2993H40.3253V22.4599C40.3253 22.4599 39.6246 22.4599 39.453 22.4599L39.2265 22.444C39.1342 22.4192 39.073 22.3536 39.0468 22.2893L39.0284 22.1012C39.0284 21.9825 39.0284 20.8335 39.0284 20.7822L39.0621 20.6538C39.1239 20.5838 41.5066 17.8611 41.614 17.7416C41.8424 17.4776 41.9689 17.4236 42.2763 17.4236C42.5589 17.4236 43.1213 17.4236 43.1213 17.4236V16.587H39.331L39.331 17.4236ZM17.6328 21.8996C17.1016 22.4329 16.3381 22.7195 15.5068 22.7195C14.6909 22.7195 13.9104 22.4329 13.3803 21.8996C12.8769 21.3965 12.6057 20.687 12.6057 19.9353C12.6057 19.1745 12.8734 18.46 13.3803 17.9599C13.9104 17.4388 14.6909 17.1481 15.5068 17.1481C16.3203 17.1481 17.107 17.4431 17.6328 17.9599C18.1467 18.46 18.4087 19.1677 18.4087 19.9353C18.4087 20.7285 18.1639 21.3668 17.6328 21.8996ZM15.5068 16.1649C14.0253 16.1649 12.4459 16.6747 11.5493 17.4817C10.8395 18.1332 10.4697 19.0314 10.4697 19.9353C10.4697 20.8446 10.8268 21.7336 11.5493 22.3859C12.5163 23.2518 13.9549 23.716 15.5068 23.716C17.0681 23.716 18.5412 23.2585 19.4767 22.3859C20.1714 21.742 20.539 20.8092 20.539 19.9353C20.539 19.0279 20.1922 18.1416 19.4767 17.49C18.4719 16.5759 17.1566 16.1649 15.5068 16.1649Z" fill="white"/>
</g>
<defs>
<clipPath id="clip0_6_4010">
<rect width="100" height="8" fill="white" transform="translate(0 16)"/>
</clipPath>
</defs>
</svg>
