<svg width="100" height="40" viewBox="0 0 100 40" fill="none" xmlns="http://www.w3.org/2000/svg">
<g clip-path="url(#clip0_6_4013)">
<path d="M56.1701 36.1702C58.5286 36.1702 60.746 35.2518 62.4137 33.584C64.0814 31.9162 65 29.6988 65 27.3403C65 24.9818 64.0814 22.7645 62.4137 21.0967C60.7459 19.4289 58.5286 18.5105 56.1701 18.5105C53.8115 18.5105 51.5941 19.4289 49.9264 21.0967C48.2586 22.7645 47.3401 24.9818 47.3401 27.3403C47.3401 29.6988 48.2586 31.9162 49.9264 33.584C51.5941 35.2518 53.8115 36.1702 56.1701 36.1702ZM49.6109 27.3403C49.6109 25.5884 50.2932 23.9412 51.5321 22.7024C52.7709 21.4636 54.4181 20.7812 56.1701 20.7812C57.922 20.7812 59.5691 21.4636 60.808 22.7024C62.0468 23.9412 62.7291 25.5884 62.7291 27.3403C62.7291 30.957 59.7867 33.8994 56.1701 33.8994C54.4181 33.8994 52.7709 33.2172 51.5321 31.9783C50.2932 30.7395 49.6109 29.0923 49.6109 27.3403Z" fill="white"/>
<path d="M44.3196 25.9521C44.9011 26.9762 45.2084 28.1435 45.2084 29.3279C45.2084 31.1579 44.4957 32.8785 43.2017 34.1725C41.9077 35.4665 40.1871 36.1792 38.3571 36.1792H35.0362H35V36.143V4.47564V4.43945H35.0362L37.2465 4.4412C39.9573 4.4412 42.5059 5.49694 44.4228 7.41384C46.3397 9.33074 47.3954 11.8794 47.3954 14.5902C47.3954 18.3476 45.3393 21.7726 42.0259 23.5444C42.9731 24.1465 43.766 24.977 44.3196 25.9521ZM42.8171 20.1609C44.3051 18.6729 45.1246 16.6945 45.1246 14.5902C45.1246 12.4859 44.3051 10.5075 42.8171 9.01953C41.3377 7.5401 39.3734 6.72233 37.2827 6.71293V22.4675C39.3734 22.4581 41.3377 21.6403 42.8171 20.1609ZM37.2827 33.9084H38.3571C40.8828 33.9084 42.9376 31.8536 42.9376 29.3279C42.9376 28.1045 42.4611 26.9542 41.596 26.089C40.7308 25.2239 39.5805 24.7474 38.3571 24.7474C38.3571 24.7474 37.4694 24.7422 37.2827 24.7412V33.9084Z" fill="white"/>
<path d="M58.3754 4.94981L58.35 4.97518L57.8422 5.48107L57.1069 6.2139L57.0806 6.24003L57.0552 6.21325C56.947 6.10011 56.642 5.83677 56.1441 5.83677C55.82 5.83677 55.4675 5.98795 55.224 6.2315C55.0588 6.39667 54.8619 6.68471 54.8619 7.11901C54.8619 7.52696 55.0102 7.78559 55.252 8.03056C55.6983 8.48268 59.3175 12.1089 59.3175 12.1089L60.5393 10.8871L60.565 10.8615L60.5905 10.8872L61.8314 12.1346L61.8569 12.1603L61.8312 12.1857L60.6097 13.4011L62.3289 15.1203L62.3545 15.1459L62.329 15.1715L61.0947 16.4145L61.069 16.4403L61.0433 16.4146L59.3236 14.6949C59.0386 14.9719 58.7438 15.2667 58.2206 15.7899C57.6382 16.3723 56.7808 16.7618 55.9268 16.8317C55.2116 16.8903 54.1574 16.7586 53.1973 15.7985C52.5129 15.1141 52.1512 14.266 52.1512 13.3458C52.1512 12.3947 52.5488 11.4065 53.1887 10.7665L53.8798 10.0805L54.2922 9.67145C54.2705 9.6497 54.2454 9.6251 54.2137 9.59439C53.86 9.25366 53.0316 8.45557 53.0316 7.11256C53.0316 6.33294 53.3462 5.55125 53.8945 4.96785C54.4813 4.34368 55.2802 4 56.1441 4C57.2763 4 58.0039 4.57061 58.3368 4.91068L58.3754 4.94981ZM58.032 13.3948L55.5841 10.9724L54.4894 12.0672C54.1719 12.3846 53.9825 12.8462 53.9825 13.3019C53.9825 13.7526 54.1577 14.1662 54.4894 14.4978C55.2473 15.2558 56.2928 15.1266 56.9202 14.5062C57.4421 13.9901 57.919 13.5092 58.032 13.3948Z" fill="white"/>
</g>
<defs>
<clipPath id="clip0_6_4013">
<rect width="100" height="40" fill="white"/>
</clipPath>
</defs>
</svg>
