<svg width="24" height="24" viewBox="0 0 24 24" fill="none" xmlns="http://www.w3.org/2000/svg">
<path d="M4.53406 4.94631V19.0527C4.53415 19.0833 4.54328 19.1132 4.5603 19.1386C4.57731 19.1641 4.60146 19.1839 4.62971 19.1957C4.65797 19.2075 4.68906 19.2106 4.71911 19.2048C4.74915 19.199 4.7768 19.1844 4.7986 19.1629L12.1436 11.9999L4.7986 4.83611C4.7768 4.81463 4.74915 4.80005 4.71911 4.79422C4.68906 4.78838 4.65797 4.79155 4.62971 4.80332C4.60146 4.81509 4.57731 4.83493 4.5603 4.86037C4.54328 4.88581 4.53415 4.9157 4.53406 4.94631ZM15.2233 9.05654L6.01361 3.98255L6.00787 3.97932C5.84922 3.89318 5.69846 4.10782 5.8284 4.23273L13.0478 11.1359L15.2233 9.05654ZM5.82912 19.767C5.69846 19.8919 5.84922 20.1065 6.00859 20.0204L6.01433 20.0172L15.2233 14.9432L13.0478 12.8631L5.82912 19.767ZM18.9412 11.1025L16.3694 9.68613L13.9512 11.9999L16.3694 14.3125L18.9412 12.8972C19.6408 12.5106 19.6408 11.4891 18.9412 11.1025Z" fill="black"/>
</svg>
