<svg width="36" height="36" viewBox="0 0 36 36" fill="none" xmlns="http://www.w3.org/2000/svg">
<path d="M27.4501 8.56509C27.3113 8.42604 27.1465 8.31571 26.965 8.24044C26.7836 8.16517 26.589 8.12643 26.3926 8.12643C26.1961 8.12643 26.0016 8.16517 25.8202 8.24044C25.6387 8.31571 25.4739 8.42604 25.3351 8.56509L18.0001 15.8851L10.6651 8.55009C10.5262 8.41122 10.3614 8.30106 10.1799 8.2259C9.99846 8.15074 9.80399 8.11206 9.60759 8.11206C9.4112 8.11206 9.21672 8.15074 9.03528 8.2259C8.85383 8.30106 8.68896 8.41122 8.55009 8.55009C8.41122 8.68896 8.30106 8.85383 8.2259 9.03528C8.15074 9.21672 8.11206 9.4112 8.11206 9.60759C8.11206 9.80399 8.15074 9.99846 8.2259 10.1799C8.30106 10.3614 8.41122 10.5262 8.55009 10.6651L15.8851 18.0001L8.55009 25.3351C8.41122 25.474 8.30106 25.6388 8.2259 25.8203C8.15074 26.0017 8.11206 26.1962 8.11206 26.3926C8.11206 26.589 8.15074 26.7835 8.2259 26.9649C8.30106 27.1464 8.41122 27.3112 8.55009 27.4501C8.68896 27.589 8.85383 27.6991 9.03528 27.7743C9.21672 27.8494 9.4112 27.8881 9.60759 27.8881C9.80399 27.8881 9.99846 27.8494 10.1799 27.7743C10.3614 27.6991 10.5262 27.589 10.6651 27.4501L18.0001 20.1151L25.3351 27.4501C25.474 27.589 25.6388 27.6991 25.8203 27.7743C26.0017 27.8494 26.1962 27.8881 26.3926 27.8881C26.589 27.8881 26.7835 27.8494 26.9649 27.7743C27.1464 27.6991 27.3112 27.589 27.4501 27.4501C27.589 27.3112 27.6991 27.1464 27.7743 26.9649C27.8494 26.7835 27.8881 26.589 27.8881 26.3926C27.8881 26.1962 27.8494 26.0017 27.7743 25.8203C27.6991 25.6388 27.589 25.474 27.4501 25.3351L20.1151 18.0001L27.4501 10.6651C28.0201 10.0951 28.0201 9.13509 27.4501 8.56509Z" fill="white"/>
</svg>
