<svg width="24" height="24" viewBox="0 0 24 24" fill="none" xmlns="http://www.w3.org/2000/svg">
<path d="M16.4873 18.8505C15.6164 19.6947 14.6655 19.5614 13.7502 19.1615C12.7816 18.7528 11.8929 18.735 10.871 19.1615C9.59134 19.7125 8.91597 19.5525 8.15173 18.8505C3.81511 14.3806 4.45494 7.57353 9.37807 7.32471C10.5777 7.38692 11.4131 7.98231 12.1151 8.03563C13.1637 7.82236 14.1679 7.20919 15.2876 7.28917C16.6295 7.3958 17.6425 7.92899 18.309 8.88874C15.5364 10.5505 16.194 14.2029 18.7356 15.2248C18.229 16.5578 17.5714 17.8819 16.4784 18.8594L16.4873 18.8505ZM12.0262 7.27139C11.8929 5.2897 13.5014 3.65459 15.3498 3.49463C15.6075 5.78735 13.2704 7.49356 12.0262 7.27139Z" fill="black"/>
</svg>
