<svg width="120" height="24" viewBox="0 0 120 24" fill="none" xmlns="http://www.w3.org/2000/svg">
<path fill-rule="evenodd" clip-rule="evenodd" d="M18.4031 9.123C18.0484 9.98433 17.8711 10.9533 17.8711 12.03C17.8711 13.0813 18.0484 14.044 18.4031 14.918C18.7704 15.7793 19.2707 16.5267 19.9041 17.16C20.5501 17.7807 21.3101 18.2683 22.1841 18.623C23.0707 18.965 24.0334 19.136 25.0721 19.136C26.1234 19.136 27.0924 18.965 27.9791 18.623C28.8657 18.2683 29.6321 17.7807 30.2781 17.16C30.9241 16.5267 31.4244 15.7793 31.7791 14.918C32.1464 14.044 32.3301 13.0813 32.3301 12.03C32.3301 10.9533 32.1464 9.98433 31.7791 9.123C31.4244 8.249 30.9241 7.508 30.2781 6.9C29.6321 6.292 28.8657 5.82333 27.9791 5.494C27.0924 5.16466 26.1234 5 25.0721 5C24.0334 5 23.0707 5.16466 22.1841 5.494C21.3101 5.82333 20.5501 6.292 19.9041 6.9C19.2707 7.508 18.7704 8.249 18.4031 9.123ZM20.7971 14.025C20.5817 13.417 20.4741 12.752 20.4741 12.03C20.4741 11.3333 20.5817 10.6873 20.7971 10.092C21.0251 9.49667 21.3417 8.97733 21.7471 8.534C22.1524 8.09066 22.6337 7.74233 23.1911 7.489C23.7611 7.23567 24.3944 7.109 25.0911 7.109C25.7877 7.109 26.4211 7.23567 26.9911 7.489C27.5611 7.74233 28.0487 8.09066 28.4541 8.534C28.8594 8.97733 29.1697 9.49667 29.3851 10.092C29.6131 10.6873 29.7271 11.3333 29.7271 12.03C29.7271 12.752 29.6131 13.417 29.3851 14.025C29.1697 14.6203 28.8531 15.1397 28.4351 15.583C28.0297 16.0263 27.5421 16.3747 26.9721 16.628C26.4021 16.8687 25.7751 16.989 25.0911 16.989C24.4071 16.989 23.7801 16.8687 23.2101 16.628C22.6527 16.3747 22.1651 16.0263 21.7471 15.583C21.3417 15.1397 21.0251 14.6203 20.7971 14.025ZM90.2689 18.7941H82.1559C81.0792 18.7941 80.0975 18.6421 79.2109 18.3381C78.3369 18.0214 77.5832 17.5717 76.9499 16.9891C76.3292 16.3937 75.8479 15.6717 75.5059 14.8231C75.1639 13.9617 74.9929 12.9864 74.9929 11.8971C74.9929 10.8711 75.1702 9.94005 75.5249 9.10405C75.8922 8.25539 76.3989 7.52705 77.0449 6.91905C77.6909 6.31105 78.4509 5.84239 79.3249 5.51305C80.2115 5.17105 81.1679 5.00005 82.1939 5.00005C83.2199 5.00005 84.1699 5.17105 85.0439 5.51305C85.9179 5.84239 86.6715 6.31105 87.3049 6.91905C87.9509 7.52705 88.4512 8.25539 88.8059 9.10405C89.1606 9.94005 89.3379 10.8711 89.3379 11.8971C89.3379 12.5051 89.2682 13.0624 89.1289 13.5691C88.9895 14.0757 88.8059 14.5381 88.5779 14.9561C88.3625 15.3614 88.1092 15.7224 87.8179 16.0391C87.5392 16.3431 87.2479 16.6027 86.9439 16.8181V16.8561H90.2689V18.7941ZM82.1939 7.14705C81.5479 7.14705 80.9399 7.26739 80.3699 7.50805C79.8126 7.74872 79.3312 8.07805 78.9259 8.49605C78.5206 8.91405 78.1975 9.41439 77.9569 9.99705C77.7289 10.5797 77.6149 11.2131 77.6149 11.8971C77.6149 12.6191 77.7225 13.2777 77.9379 13.8731C78.1659 14.4557 78.4762 14.9561 78.8689 15.3741C79.2742 15.7921 79.7555 16.1214 80.3129 16.3621C80.8702 16.5901 81.4846 16.7041 82.1559 16.7041C82.8146 16.7041 83.4226 16.5901 83.9799 16.3621C84.5499 16.1214 85.0376 15.7921 85.4429 15.3741C85.8482 14.9561 86.1649 14.4557 86.3929 13.8731C86.6209 13.2777 86.7349 12.6191 86.7349 11.8971C86.7349 11.2131 86.6272 10.5797 86.4119 9.99705C86.1965 9.41439 85.8862 8.91405 85.4809 8.49605C85.0882 8.07805 84.6132 7.74872 84.0559 7.50805C83.4986 7.26739 82.8779 7.14705 82.1939 7.14705ZM44.9194 13.8541C44.9194 14.6647 44.7801 15.3994 44.5014 16.0581C44.2228 16.7041 43.8428 17.2551 43.3614 17.7111C42.8801 18.1671 42.3101 18.5217 41.6514 18.7751C40.9928 19.0157 40.2771 19.1361 39.5044 19.1361C38.7318 19.1361 38.0161 19.0157 37.3574 18.7751C36.6988 18.5217 36.1224 18.1671 35.6284 17.7111C35.1471 17.2551 34.7671 16.7041 34.4884 16.0581C34.2224 15.3994 34.0894 14.6647 34.0894 13.8541V5.34205H36.4834V13.7591C36.4834 14.1517 36.5341 14.5444 36.6354 14.9371C36.7368 15.3171 36.9014 15.6591 37.1294 15.9631C37.3701 16.2671 37.6804 16.5141 38.0604 16.7041C38.4531 16.8941 38.9344 16.9891 39.5044 16.9891C40.0744 16.9891 40.5494 16.8941 40.9294 16.7041C41.3221 16.5141 41.6324 16.2671 41.8604 15.9631C42.1011 15.6591 42.2721 15.3171 42.3734 14.9371C42.4748 14.5444 42.5254 14.1517 42.5254 13.7591V5.34205H44.9194V13.8541ZM47.1969 5.34205H50.3699L56.6209 15.4121H56.6589V5.34205H59.0529V18.7941H56.0129L49.6289 8.40105H49.5909V18.7941H47.1969V5.34205ZM66.2211 5.34205H61.4521V18.7941H66.2211C67.0951 18.7941 67.9755 18.6674 68.8621 18.4141C69.7488 18.1481 70.5468 17.7427 71.2561 17.1981C71.9655 16.6534 72.5418 15.9567 72.9851 15.1081C73.4285 14.2594 73.6501 13.2461 73.6501 12.0681C73.6501 10.8014 73.4285 9.74372 72.9851 8.89505C72.5418 8.03372 71.9655 7.34339 71.2561 6.82405C70.5468 6.29205 69.7488 5.91205 68.8621 5.68405C67.9755 5.45605 67.0951 5.34205 66.2211 5.34205ZM67.7031 16.4951C67.0825 16.6344 66.4618 16.7041 65.8411 16.7041H63.8461V7.39405H65.8411C66.4618 7.39405 67.0825 7.45739 67.7031 7.58405C68.3238 7.71072 68.8811 7.94505 69.3751 8.28705C69.8818 8.62905 70.2935 9.10405 70.6101 9.71205C70.9268 10.3201 71.0851 11.1054 71.0851 12.0681C71.0851 12.9801 70.9268 13.7337 70.6101 14.3291C70.2935 14.9244 69.8818 15.3994 69.3751 15.7541C68.8811 16.0961 68.3238 16.3431 67.7031 16.4951ZM101.87 16.0581C102.148 15.3994 102.288 14.6647 102.288 13.8541V5.34205H99.8936V13.7591C99.8936 14.1517 99.8429 14.5444 99.7416 14.9371C99.6402 15.3171 99.4692 15.6591 99.2286 15.9631C99.0006 16.2671 98.6902 16.5141 98.2976 16.7041C97.9176 16.8941 97.4426 16.9891 96.8726 16.9891C96.3026 16.9891 95.8212 16.8941 95.4286 16.7041C95.0486 16.5141 94.7382 16.2671 94.4976 15.9631C94.2696 15.6591 94.1049 15.3171 94.0036 14.9371C93.9022 14.5444 93.8516 14.1517 93.8516 13.7591V5.34205H91.4576V13.8541C91.4576 14.6647 91.5906 15.3994 91.8566 16.0581C92.1352 16.7041 92.5152 17.2551 92.9966 17.7111C93.4906 18.1671 94.0669 18.5217 94.7256 18.7751C95.3842 19.0157 96.0999 19.1361 96.8726 19.1361C97.6452 19.1361 98.3609 19.0157 99.0196 18.7751C99.6782 18.5217 100.248 18.1671 100.73 17.7111C101.211 17.2551 101.591 16.7041 101.87 16.0581ZM104.371 5.34197H113.282V7.43197H106.765V10.852H112.94V12.866H106.765V16.666H113.624V18.794H104.371V5.34197ZM13.783 7.33705C14.2517 7.55239 14.6127 7.82472 14.866 8.15405L16.424 6.44405C15.9047 5.96272 15.2903 5.60172 14.581 5.36105C13.8843 5.12039 13.194 5.00005 12.51 5.00005C11.902 5.00005 11.3003 5.08239 10.705 5.24705C10.1223 5.39905 9.59667 5.63972 9.128 5.96905C8.672 6.28572 8.29833 6.69105 8.007 7.18505C7.72833 7.67905 7.589 8.26805 7.589 8.95205C7.589 9.58539 7.69033 10.1174 7.893 10.5481C8.09567 10.9661 8.35533 11.3207 8.672 11.6121C9.00133 11.9034 9.36867 12.1377 9.774 12.3151C10.1793 12.4924 10.5847 12.6444 10.99 12.7711L12.187 13.1701C12.567 13.2967 12.8963 13.4487 13.175 13.6261C13.4537 13.7907 13.6753 13.9934 13.84 14.2341C14.0047 14.4621 14.087 14.7534 14.087 15.1081C14.087 15.4754 14.011 15.7857 13.859 16.0391C13.7197 16.2797 13.5297 16.4824 13.289 16.6471C13.061 16.8117 12.8013 16.9321 12.51 17.0081C12.2187 17.0714 11.9337 17.1031 11.655 17.1031C11.123 17.1031 10.5783 16.9701 10.021 16.7041C9.47633 16.4381 9.03933 16.0771 8.71 15.6211L7 17.2171C7.532 17.8504 8.216 18.3317 9.052 18.6611C9.888 18.9777 10.743 19.1361 11.617 19.1361C12.2757 19.1361 12.9027 19.0474 13.498 18.8701C14.0933 18.6927 14.6127 18.4267 15.056 18.0721C15.4993 17.7174 15.854 17.2741 16.12 16.7421C16.386 16.1974 16.519 15.5641 16.519 14.8421C16.519 14.1834 16.3923 13.6324 16.139 13.1891C15.8983 12.7457 15.5817 12.3784 15.189 12.0871C14.809 11.7957 14.3847 11.5614 13.916 11.3841C13.46 11.2067 13.0167 11.0484 12.586 10.9091C12.206 10.7951 11.8577 10.6811 11.541 10.5671C11.2243 10.4531 10.952 10.3201 10.724 10.1681C10.5087 10.0161 10.3377 9.83239 10.211 9.61705C10.0843 9.40172 10.021 9.14205 10.021 8.83805C10.021 8.50872 10.0907 8.23005 10.23 8.00205C10.382 7.76139 10.572 7.57139 10.8 7.43205C11.028 7.28005 11.2813 7.17239 11.56 7.10905C11.8387 7.03305 12.1173 6.99505 12.396 6.99505C12.8647 6.99505 13.327 7.10905 13.783 7.33705Z" fill="white"/>
</svg>
